<svg xmlns="http://www.w3.org/2000/svg" version="1.1" xmlns:xlink="http://www.w3.org/1999/xlink" width="512" height="512" x="0" y="0" viewBox="0 0 340 340" style="enable-background:new 0 0 512 512" xml:space="preserve" class=""><g><path fill="#bddeff" d="M285.963 38.583H116.814l-47.967 47.8v215.273h205.412a11.7 11.7 0 0 0 11.7-11.7z" opacity="1" data-original="#bddeff"></path><path fill="#497fce" d="M82.115 210.246a181.215 181.215 0 0 1-3.531-28.353 6.092 6.092 0 0 0-7.989-5.519l-1.748.575v124.707h27.1l.712-3.1-7.859-3.145 5.972-20.111H106.7a18.1 18.1 0 0 0 8.965-2.243c9.854-5.609 10.535-17.869 10.535-17.869l-10.548-5.342a41.116 41.116 0 0 1-13.941-7.358 55.123 55.123 0 0 1-19.596-32.242z" opacity="1" data-original="#497fce" class=""></path><path fill="#ffd3bd" d="m22.922 290.7 4.878-24.59a13.34 13.34 0 0 0-1.547-9.311 101.8 101.8 0 0 1-13.112-41.654 10.52 10.52 0 0 1 3.984-9.131l6.153-4.846s-.854-5.9-1.238-13.149a10.576 10.576 0 0 1 4.242-9.062l13.968-10.368a7.911 7.911 0 0 1 12.585 5.542l.185 1.807 7.95-4.135a6.748 6.748 0 0 1 9.8 5.1c1.525 11.357 4.541 30.45 9.05 44.05a25.624 25.624 0 0 0 10.56 13.533c7.164 4.572 18.829 11.288 30.066 14.577l-2.907 9.432A12.056 12.056 0 0 1 106.04 267a184.4 184.4 0 0 1-18.768-.827l-9.341 35.48z" opacity="1" data-original="#ffd3bd"></path><path fill="#497fce" d="M242.144 38.583h-77.216c-.413 5.728 4.917 8.413 4.917 8.413l-3.175 5.736a11.061 11.061 0 0 0 7.18 16.128c12.681 2.941 22.674 6.324 22.674 6.324 52.863 16.387 53.688 51.843 53.688 51.843 23.609-3.223 22.207-25.55 22.207-25.55l13.544-1.015V38.583z" opacity="1" data-original="#497fce" class=""></path><path fill="#7aaeed" d="M116.814 38.583v37.193a10.6 10.6 0 0 1-10.6 10.605H68.847z" opacity="1" data-original="#7aaeed"></path><path fill="#ffde76" d="M236.247 161.775a60.3 60.3 0 1 0-90.5 52.191 7.545 7.545 0 0 1 3.735 6.537v13.8h52.94v-13.795A7.5 7.5 0 0 1 206.1 214a60.265 60.265 0 0 0 30.147-52.225z" opacity="1" data-original="#ffde76"></path><path fill="#efac52" d="M149.478 234.3h52.94v13.57a22.724 22.724 0 0 1-22.724 22.73H172.2a22.724 22.724 0 0 1-22.724-22.725z" opacity="1" data-original="#efac52"></path><path fill="#eaa07f" d="M47.6 167.5c-1.565 20.86 2.518 40.86 4.577 49.284a3.629 3.629 0 1 0 7.018-1.844c-4.216-14.833-6.171-39-6.171-39l-.185-1.807A7.839 7.839 0 0 0 47.6 167.5zM30.906 175.526c-2.052 17.247 3.654 39.586 6.36 48.865a3.468 3.468 0 0 0 6.663-1.924c-5.7-19.392-6.8-42.983-7.018-51.4zM17.522 205.7a120.91 120.91 0 0 0 5.823 25.122 3.267 3.267 0 0 0 6.19-2.092c-3.823-11.379-6.253-27.566-6.253-27.566z" opacity="1" data-original="#eaa07f" class=""></path><g fill="#efac52"><path d="M212.252 159.78a22.378 22.378 0 0 0-14.413-12.691 22.131 22.131 0 0 0-18.767 2.946 4 4 0 1 0 4.528 6.595 14.167 14.167 0 0 1 12.014-1.857 14.408 14.408 0 0 1 9.287 8.163c3.222 7.507 1.765 16.164 1.766 16.163-2.362 11.69-12.4 20.36-18.17 24.489a18.576 18.576 0 0 0-7.734 15.092v19.814a4 4 0 0 0 8 0V218.68a10.565 10.565 0 0 1 4.387-8.586c6.73-4.812 18.453-15.033 21.375-29.5.08-.441 1.918-11.049-2.273-20.814z" fill="#efac52" opacity="1" data-original="#efac52"></path><path d="M155.229 153.4c-13.492 1.177-17.829 13.33-17.435 23.419a4 4 0 0 0 7.994-.312c-.168-4.3.5-14.377 10.265-15.148a4.256 4.256 0 0 0 .5-.072 10.355 10.355 0 0 1 4.593.37c-5.562 7.549-6.548 16.081-2.73 24.334a10.123 10.123 0 0 0 9.242 5.88c.187 0 .376-.005.565-.015a10.038 10.038 0 0 0 9.038-6.805l.094-.283a26.262 26.262 0 0 0-2.483-21.541c-6.727-11.327-17.633-10.152-19.643-9.827zm14.516 28.905-.059.177a2.029 2.029 0 0 1-1.89 1.386 2.12 2.12 0 0 1-2.118-1.236c-2.562-5.538-1.949-10.946 1.817-16.108q.253.376.5.788a18.277 18.277 0 0 1 1.75 14.994zM164.215 203.588a54.048 54.048 0 0 1-13.5-13.543 4 4 0 1 0-6.677 4.407 62.108 62.108 0 0 0 15.52 15.643 10.562 10.562 0 0 1 4.387 8.585v19.814a4 4 0 0 0 8 0V218.68a18.578 18.578 0 0 0-7.73-15.092z" fill="#efac52" opacity="1" data-original="#efac52"></path></g><path fill="#fff7e1" d="M182.229 119.629a40.535 40.535 0 0 1 36.943 37.037c.012.152.023.3.033.455a8.833 8.833 0 0 1-14.885 6.973c-9.73-9.186-20.854-19.755-30.939-29.359a8.842 8.842 0 0 1 6.335-15.234q1.248.026 2.513.128z" opacity="1" data-original="#fff7e1"></path><path fill="#ffd3bd" d="M296.088 27.575 271.1 29.518a13.336 13.336 0 0 1-9.063-2.636 101.818 101.818 0 0 0-39.814-17.94 10.522 10.522 0 0 0-9.538 2.878l-5.539 5.537s-5.756-1.545-12.91-2.783a10.578 10.578 0 0 0-9.5 3.142l-11.95 12.641a7.911 7.911 0 0 0 4.014 13.152l1.773.4-5.045 7.405a6.748 6.748 0 0 0 3.9 10.335c11.1 2.855 29.7 8.106 42.672 14.19a25.625 25.625 0 0 1 12.2 12.082c3.693 7.655 8.984 20.031 10.923 31.578l9.71-1.773a12.055 12.055 0 0 0 9.81-10.414 184.3 184.3 0 0 0 1.395-18.734l36.336-5.085z" opacity="1" data-original="#ffd3bd"></path><path fill="#eaa07f" d="M170.832 37.524c20.9.91 40.277 7.326 48.4 10.366a3.629 3.629 0 1 1-2.66 6.751c-14.231-5.938-37.994-10.734-37.994-10.734l-1.773-.4a7.839 7.839 0 0 1-5.973-5.983zM180.779 21.9c17.368 0 38.877 8.3 47.771 12.087a3.468 3.468 0 0 1-2.7 6.39c-18.582-7.952-41.878-11.834-50.21-13.041zM212.326 12.173a120.817 120.817 0 0 1 24.258 8.75 3.267 3.267 0 0 1-2.808 5.9c-10.848-5.141-26.635-9.466-26.635-9.466z" opacity="1" data-original="#eaa07f" class=""></path><path fill="#497fce" d="M285.963 244.737V223.87l-56.292 77.786h20.512z" opacity="1" data-original="#497fce" class=""></path><path fill="#ff8080" d="M213.438 324.088a8.988 8.988 0 0 1-2.215-12.516l90.414-129.3a27.754 27.754 0 0 1 9.045-8.234l10.874-6.171a1.209 1.209 0 0 1 1.786 1.272l-2.286 12.372a27.771 27.771 0 0 1-4.547 10.859l-90.555 129.5a8.987 8.987 0 0 1-12.516 2.218z" opacity="1" data-original="#ff8080"></path><path fill="#bddeff" d="m10.358 317.342 6.735-30.761 70.179 14.565-7.283 30.124s-44.575-4.849-69.631-13.928z" opacity="1" data-original="#bddeff"></path><path fill="#497fce" d="M66.645 319.224a4.129 4.129 0 0 1-.78-.08 3.9 3.9 0 0 1-.75-.23 4.441 4.441 0 0 1-.69-.361 4.746 4.746 0 0 1-.61-.5 4.006 4.006 0 0 1 0-5.659 4.919 4.919 0 0 1 .61-.5 4.529 4.529 0 0 1 .69-.361 3.973 3.973 0 0 1 .75-.23 4 4 0 1 1 .78 7.921z" opacity="1" data-original="#497fce" class=""></path><path fill="#bddeff" d="M324.029 18.246 292.688 21.3l6.173 71.408 30.773-3.674s.451-44.834-5.605-70.788z" opacity="1" data-original="#bddeff"></path><path fill="#497fce" d="M319.249 74.361a4.175 4.175 0 0 0 .012-.783 3.82 3.82 0 0 0-.139-.772 4.508 4.508 0 0 0-.277-.728 4.968 4.968 0 0 0-.424-.665 4.008 4.008 0 0 0-5.62-.669 4.894 4.894 0 0 0-.569.547 4.533 4.533 0 0 0-.439.643 3.906 3.906 0 0 0-.317.717 4 4 0 1 0 7.773 1.71z" opacity="1" data-original="#497fce" class=""></path></g></svg>